<svg xmlns="http://www.w3.org/2000/svg" viewBox="0 0 709.74 521.63"><defs><style>.cls-1{fill:#eae9e8;}.cls-2{fill:#57fff2;}.cls-3{fill:#a64aff;}.cls-4{fill:#ff7555;}</style></defs><title>logo_1</title><g id="Layer_2" data-name="Layer 2"><g id="Layer_1-2" data-name="Layer 1"><path class="cls-1" d="M0,431.05H33.47c20.9,0,35.41,13.39,35.41,36.41s-13.8,36.12-36.32,36.12H0Zm30.84,55c9.74,0,16.53-6.29,16.53-18.57,0-12-6.39-18.86-16.53-18.86H21.2V486Z"/><path class="cls-1" d="M73.74,477.61c0-15.62,11.26-27.49,27.59-27.49,8.12,0,14.31,2.64,19.07,7,6.29,5.78,9.24,15,9,25.25H92.51c1.11,6,4.36,9.64,10.14,9.64,3.35,0,5.78-1.32,7.2-3.85h18.57c-1.12,4.66-4.77,9.23-9.84,12.47-4.77,3.05-9.94,4.37-16.54,4.37C85.1,505,73.74,493.43,73.74,477.61Zm18.77-5.38h17.85c-.81-5.78-4.06-9.23-8.62-9.23C96.46,463,93.52,466.55,92.51,472.23Z"/><path class="cls-1" d="M133.18,486.84h18.36c.31,4.26,3,6.79,7.81,6.79,3.76,0,6.6-1.31,6.6-4.46,0-4.26-6-4.77-12.68-5.78-8.72-1.32-18.77-3.65-18.77-16.64,0-10.65,10.86-16.53,23.54-16.53,15.72,0,23.93,5.88,24.64,16H164.63c-.51-3.86-3.35-4.67-6.49-4.67-2.84,0-5.48,1.12-5.48,3.75,0,2.95,4.77,3.55,10.65,4.37,9.43,1.31,21.4,3.45,21.4,17.85,0,12.37-11.26,17.75-25.46,17.75C143.94,505.3,133.28,498.71,133.18,486.84Z"/><path class="cls-1" d="M191.31,431.05h19.17v14.5H191.31Zm0,20.79h19.17v51.74H191.31Z"/><path class="cls-1" d="M218.29,504.49h18.46c.71,2.13,3.14,4.36,7.71,4.36,6.19,0,8.32-3.65,8.32-9v-4.66h-.41A16.54,16.54,0,0,1,239.28,501c-11.76,0-22-8.22-22-24.45,0-14.81,8.42-26.37,21.1-26.37,7.3,0,11.77,2.84,14.71,7.3h.31v-5.68h18.25v45.55c0,8.32-3,14.71-7.6,18.56-4.77,4.06-11.57,5.68-19.28,5.68C230.26,521.63,220.11,516,218.29,504.49Zm35.3-28.71c0-6.49-3.25-11.66-8.83-11.66-5.37,0-8.82,4.66-8.82,11.66s3.45,11.87,8.82,11.87C250.34,487.65,253.59,482.58,253.59,475.78Z"/><path class="cls-1" d="M298.83,458.94h.3c4.16-5.68,9.43-8.72,16.64-8.72,12,0,18.15,8,18.15,19.88v33.48H314.75V474.77c0-5.38-2.23-8.93-7.2-8.93s-7.81,4.26-7.81,9.84v27.9H280.57V451.84h18.26Z"/><path class="cls-1" d="M338.69,451.84h6.7V435.1h18.76v16.74H374v11.57h-9.84v21c0,5.18,3.65,5.28,9.64,4.87v14.1a39.35,39.35,0,0,1-9.44,1.22c-12.57,0-19-3.55-19-15.93V463.41h-6.7Z"/><path class="cls-1" d="M399.25,459.65h.3c4.16-6.49,9.13-8.92,15.72-8.92a7.47,7.47,0,0,1,3.15.5v16.33H418c-11.26-1.92-17.85,3.15-17.85,14.81v21.21H381V451.84h18.26Z"/><path class="cls-1" d="M454.73,497.9h-.2c-3.45,4.76-8.93,7-15.62,7-9.94,0-17.25-5.37-17.25-15.51,0-11.47,8.83-14.82,18.77-15.93,10.95-1.22,13.9-2.54,13.9-5.78,0-2.84-1.32-5-5.48-5s-6.29,2.43-6.8,6.18H423.9c.4-10.24,8.31-18.66,24.54-18.66,7.92,0,13,1,16.94,3.45,5.38,3.34,8,8.62,8,15.52v25.86c0,4.37.3,6.7,1.92,7.71v.82H456.46A15.11,15.11,0,0,1,454.73,497.9Zm.1-13.09v-4.56a31.58,31.58,0,0,1-7.4,2.43c-5.58,1.22-7.3,2.84-7.3,5.88,0,3.45,2.83,5,6,5C450.57,493.53,454.83,491,454.83,484.81Z"/><path class="cls-1" d="M482.73,431.05h19.68v72.53H482.73Z"/><path class="cls-1" d="M511.33,431.05H530.5v14.5H511.33Zm0,20.79H530.5v51.74H511.33Z"/><path class="cls-1" d="M536.39,486.84h18.36c.3,4.26,2.94,6.79,7.81,6.79,3.75,0,6.59-1.31,6.59-4.46,0-4.26-6-4.77-12.68-5.78-8.72-1.32-18.77-3.65-18.77-16.64,0-10.65,10.86-16.53,23.54-16.53,15.72,0,23.94,5.88,24.65,16H567.83c-.51-3.86-3.35-4.67-6.49-4.67-2.84,0-5.48,1.12-5.48,3.75,0,2.95,4.77,3.55,10.65,4.37,9.44,1.31,21.41,3.45,21.41,17.85,0,12.37-11.26,17.75-25.47,17.75C547.14,505.3,536.49,498.71,536.39,486.84Z"/><path class="cls-1" d="M592.38,477.61c0-15.62,11.26-27.49,27.59-27.49,8.11,0,14.3,2.64,19.07,7,6.29,5.78,9.23,15,9,25.25H611.14c1.12,6,4.36,9.64,10.15,9.64,3.34,0,5.78-1.32,7.2-3.85h18.56c-1.11,4.66-4.77,9.23-9.84,12.47-4.77,3.05-9.94,4.37-16.53,4.37C603.74,505,592.38,493.43,592.38,477.61Zm18.76-5.38H629c-.82-5.78-4.06-9.23-8.63-9.23C615.1,463,612.16,466.55,611.14,472.23Z"/><path class="cls-1" d="M652.73,477.61c0-16.23,9.33-27.39,23.13-27.39,7.4,0,11.06,2.74,14.4,7.1h.31V431.05h19.17v72.53H691.48v-7.21h-.2a17.11,17.11,0,0,1-15.22,8.93C662.67,505.3,652.73,495.46,652.73,477.61Zm38.34-.31c0-7.4-3.85-13.28-9.53-13.28s-9.33,5.37-9.33,13.28,3.65,13.49,9.33,13.49S691.07,484.81,691.07,477.3Z"/><path class="cls-2" d="M84.76,337.1h273a180.43,180.43,0,0,1-92,25H84.76Z"/><path class="cls-3" d="M84.76,288.94h411.3a181.43,181.43,0,0,1-17.42,20.19c-1.65,1.66-3.31,3.28-5,4.86H84.76Z"/><path class="cls-4" d="M0,240.79H436.81a180,180,0,0,1-10.91,25H0Z"/><path class="cls-3" d="M84.76,192.63H531.27a179.72,179.72,0,0,1-3.31,25H84.76Z"/><path class="cls-2" d="M357.79,25h-273V0H265.83A180.43,180.43,0,0,1,357.79,25Z"/><path class="cls-3" d="M496.06,73.2H84.76v-25H473.6A186.65,186.65,0,0,1,496.06,73.2Z"/><path class="cls-4" d="M436.81,121.36H0v-25H425.9A179.64,179.64,0,0,1,436.81,121.36Z"/><path class="cls-2" d="M446.51,169.51H84.76v-25H443.2A178.24,178.24,0,0,1,446.51,169.51Z"/></g></g></svg>