<svg xmlns="http://www.w3.org/2000/svg" viewBox="0 0 466.52 345.93"><defs><style>.cls-1{fill:#57fff2;}.cls-2{fill:#a64aff;}.cls-3{fill:#ff7555;}.cls-4{fill:#eae9e8;}</style></defs><title>logo_1</title><g id="Layer_2" data-name="Layer 2"><g id="Layer_1-2" data-name="Layer 1"><path class="cls-1" d="M56.14,221.46H235.51a118.52,118.52,0,0,1-60.41,16.45h-119Z"/><path class="cls-2" d="M56.14,189.82H326.35a118.7,118.7,0,0,1-11.44,13.26c-1.09,1.09-2.18,2.15-3.32,3.19H56.14Z"/><path class="cls-3" d="M.46,158.18h287a117.64,117.64,0,0,1-7.16,16.46H.46Z"/><path class="cls-2" d="M56.14,126.55H349.48A117.47,117.47,0,0,1,347.3,143H56.14Z"/><path class="cls-1" d="M235.51,16.45H56.14V0h119A118.52,118.52,0,0,1,235.51,16.45Z"/><path class="cls-2" d="M326.35,48.09H56.14V31.64H311.59A123.24,123.24,0,0,1,326.35,48.09Z"/><path class="cls-3" d="M287.42,79.72H.46V63.27h279.8A118,118,0,0,1,287.42,79.72Z"/><path class="cls-1" d="M293.8,111.36H56.14V94.91H291.62A117.47,117.47,0,0,1,293.8,111.36Z"/><path class="cls-4" d="M0,286.1H22.11c13.8,0,23.38,8.85,23.38,24S36.38,334,21.51,334H0Zm20.37,36.32c6.43,0,10.92-4.16,10.92-12.27,0-7.9-4.22-12.46-10.92-12.46H14v24.73Z"/><path class="cls-4" d="M48.58,316.86c0-10.32,7.43-18.16,18.22-18.16a17.92,17.92,0,0,1,12.6,4.62c4.15,3.82,6.09,9.92,6,16.68H61c.74,4,2.88,6.37,6.7,6.37a5.05,5.05,0,0,0,4.76-2.55H84.69c-.74,3.08-3.15,6.1-6.5,8.24A19.29,19.29,0,0,1,67.27,335C56.08,335,48.58,327.31,48.58,316.86ZM61,313.3H72.76c-.53-3.81-2.68-6.09-5.69-6.09C63.58,307.21,61.64,309.55,61,313.3Z"/><path class="cls-4" d="M87.7,323H99.83c.2,2.82,1.94,4.49,5.16,4.49,2.48,0,4.35-.87,4.35-2.95,0-2.81-4-3.15-8.37-3.82-5.76-.87-12.4-2.41-12.4-11,0-7,7.17-10.93,15.55-10.93,10.38,0,15.81,3.89,16.28,10.59H108.47c-.33-2.54-2.21-3.08-4.29-3.08-1.87,0-3.61.74-3.61,2.48,0,1.94,3.15,2.34,7,2.88,6.23.87,14.14,2.28,14.14,11.79,0,8.18-7.44,11.73-16.82,11.73C94.8,335.15,87.77,330.79,87.7,323Z"/><path class="cls-4" d="M126,286.1h12.66v9.58H126Zm0,13.74h12.66V334H126Z"/><path class="cls-4" d="M143.65,334.61h12.19c.47,1.41,2.08,2.88,5.09,2.88,4.09,0,5.5-2.41,5.5-6v-3.08h-.27a10.93,10.93,0,0,1-8.64,3.88c-7.78,0-14.54-5.43-14.54-16.14,0-9.79,5.56-17.43,13.93-17.43,4.83,0,7.77,1.88,9.72,4.83h.2v-3.75h12.06v30.08c0,5.49-2,9.72-5,12.26s-7.63,3.75-12.73,3.75C151.55,345.93,144.85,342.18,143.65,334.61Zm23.31-19c0-4.29-2.14-7.71-5.83-7.71s-5.83,3.09-5.83,7.71,2.28,7.84,5.83,7.84S167,320.14,167,315.65Z"/><path class="cls-4" d="M196.71,304.53h.2a12.87,12.87,0,0,1,11-5.77c7.91,0,12,5.3,12,13.14V334H207.23V315c0-3.55-1.47-5.9-4.76-5.9s-5.16,2.82-5.16,6.5V334H184.65V299.84h12.06Z"/><path class="cls-4" d="M222.91,299.84h4.42V288.78h12.39v11.06h6.5v7.64h-6.5v13.86c0,3.42,2.42,3.49,6.37,3.22v9.31a25.87,25.87,0,0,1-6.23.81c-8.31,0-12.53-2.35-12.53-10.52V307.48h-4.42Z"/><path class="cls-4" d="M262.77,305h.2c2.75-4.29,6-5.9,10.39-5.9a4.77,4.77,0,0,1,2.08.34v10.78h-.27c-7.44-1.27-11.79,2.08-11.79,9.78v14H250.71V299.84h12.06Z"/><path class="cls-4" d="M299.29,330.26h-.14c-2.27,3.14-5.89,4.62-10.32,4.62-6.56,0-11.38-3.55-11.38-10.25,0-7.57,5.82-9.78,12.39-10.52,7.24-.81,9.18-1.68,9.18-3.82,0-1.88-.87-3.28-3.62-3.28s-4.15,1.6-4.49,4.08h-12c.27-6.76,5.49-12.33,16.21-12.33,5.23,0,8.58.68,11.19,2.28,3.55,2.21,5.3,5.7,5.3,10.25v17.09c0,2.88.2,4.42,1.27,5.09V334H300.43A10,10,0,0,1,299.29,330.26Zm.06-8.65v-3a20.35,20.35,0,0,1-4.89,1.6c-3.68.81-4.82,1.88-4.82,3.89,0,2.28,1.88,3.28,3.95,3.28C296.54,327.37,299.35,325.7,299.35,321.61Z"/><path class="cls-4" d="M317.64,286.1h13V334h-13Z"/><path class="cls-4" d="M336.4,286.1h12.67v9.58H336.4Zm0,13.74h12.67V334H336.4Z"/><path class="cls-4" d="M354,324.83l12-12.2c1.67-1.67,3.42-3.21,3.42-3.21v-.2s-2.75.13-4.89.13h-9.32v-9.51h30v8.77L373.86,320.2c-2.08,2.08-4.36,4.16-4.36,4.16v.2s2.48-.13,5.56-.13h11.26V334H354Z"/><path class="cls-4" d="M389.13,316.86c0-10.32,7.44-18.16,18.23-18.16A17.89,17.89,0,0,1,420,303.32c4.16,3.82,6.1,9.92,6,16.68H401.53c.73,4,2.88,6.37,6.7,6.37a5,5,0,0,0,4.75-2.55h12.27c-.74,3.08-3.15,6.1-6.5,8.24A19.29,19.29,0,0,1,407.83,335C396.64,335,389.13,327.31,389.13,316.86Zm12.4-3.56h11.79c-.54-3.81-2.68-6.09-5.7-6.09C404.14,307.21,402.2,309.55,401.53,313.3Z"/><path class="cls-4" d="M428.86,316.86c0-10.72,6.17-18.1,15.28-18.1,4.89,0,7.3,1.81,9.51,4.69h.2V286.1h12.67V334H454.46v-4.76h-.14a11.31,11.31,0,0,1-10.05,5.9C435.43,335.15,428.86,328.65,428.86,316.86Zm25.33-.21c0-4.89-2.55-8.77-6.3-8.77s-6.16,3.55-6.16,8.77,2.41,8.92,6.16,8.92S454.19,321.61,454.19,316.65Z"/></g></g></svg>